<?xml version="1.0" standalone="no"?>
<!DOCTYPE svg PUBLIC "-//W3C//DTD SVG 20010904//EN"
 "http://www.w3.org/TR/2001/REC-SVG-20010904/DTD/svg10.dtd">
<svg version="1.0" xmlns="http://www.w3.org/2000/svg"
 width="500.000000pt" height="500.000000pt" viewBox="0 0 500.000000 500.000000"
 preserveAspectRatio="xMidYMid meet">

<g transform="translate(0.000000,500.000000) scale(0.100000,-0.100000)"
fill="#000000" stroke="none">
<path d="M1266 3354 c24 -58 47 -110 50 -115 3 -5 -16 -9 -42 -9 -39 0 -46 -3
-41 -17 2 -10 105 -254 227 -543 280 -662 534 -1265 608 -1442 l57 -138 374 3
374 2 344 815 c189 448 391 927 448 1063 58 136 105 250 105 252 0 2 -20 5
-44 7 l-45 3 49 113 48 112 -404 0 c-251 0 -404 -4 -404 -10 0 -9 -424 -1030
-439 -1058 -4 -7 -99 213 -227 527 l-219 541 -432 0 -432 0 45 -106z"/>
</g>
</svg>
